<mxfile host="app.diagrams.net" modified="2024-02-06T10:31:29.322Z" agent="Mozilla/5.0 (Windows NT 10.0; Win64; x64) AppleWebKit/537.36 (KHTML, like Gecko) Chrome/121.0.0.0 Safari/537.36" etag="CCsBOnJCCaKwFTDPI0z1" version="23.1.1" type="github" pages="2">
  <diagram name="Page-1" id="OwfiVeOAE6O_KrkkMr-Q">
    <mxGraphModel dx="794" dy="454" grid="1" gridSize="11" guides="1" tooltips="1" connect="1" arrows="1" fold="1" page="1" pageScale="1" pageWidth="850" pageHeight="1100" math="0" shadow="0">
      <root>
        <mxCell id="0" />
        <mxCell id="1" parent="0" />
        <mxCell id="SMNPBds_AobCi2813BHv-92" value="" style="endArrow=classic;html=1;rounded=0;" parent="1" edge="1">
          <mxGeometry width="50" height="50" relative="1" as="geometry">
            <mxPoint x="639" y="240" as="sourcePoint" />
            <mxPoint x="638" y="142" as="targetPoint" />
          </mxGeometry>
        </mxCell>
        <mxCell id="SMNPBds_AobCi2813BHv-37" value="" style="verticalLabelPosition=bottom;html=1;verticalAlign=top;align=center;strokeColor=none;fillColor=#00BEF2;shape=mxgraph.azure.user;" parent="1" vertex="1">
          <mxGeometry x="8" y="190" width="30" height="20" as="geometry" />
        </mxCell>
        <mxCell id="SMNPBds_AobCi2813BHv-42" value="" style="rounded=0;whiteSpace=wrap;html=1;" parent="1" vertex="1">
          <mxGeometry x="227" y="40" width="60" height="300" as="geometry" />
        </mxCell>
        <mxCell id="SMNPBds_AobCi2813BHv-39" value="" style="verticalLabelPosition=bottom;html=1;verticalAlign=top;align=center;strokeColor=none;fillColor=#00BEF2;shape=mxgraph.azure.website_generic;pointerEvents=1;" parent="1" vertex="1">
          <mxGeometry x="86" y="178.75" width="50" height="42.5" as="geometry" />
        </mxCell>
        <mxCell id="SMNPBds_AobCi2813BHv-41" value="" style="sketch=0;points=[[0,0,0],[0.25,0,0],[0.5,0,0],[0.75,0,0],[1,0,0],[0,1,0],[0.25,1,0],[0.5,1,0],[0.75,1,0],[1,1,0],[0,0.25,0],[0,0.5,0],[0,0.75,0],[1,0.25,0],[1,0.5,0],[1,0.75,0]];outlineConnect=0;fontColor=#232F3E;fillColor=#E7157B;strokeColor=#ffffff;dashed=0;verticalLabelPosition=bottom;verticalAlign=top;align=center;html=1;fontSize=12;fontStyle=0;aspect=fixed;shape=mxgraph.aws4.resourceIcon;resIcon=mxgraph.aws4.api_gateway;" parent="1" vertex="1">
          <mxGeometry x="237" y="165.75" width="38" height="38" as="geometry" />
        </mxCell>
        <mxCell id="SMNPBds_AobCi2813BHv-43" value="" style="endArrow=classic;html=1;rounded=0;" parent="1" edge="1">
          <mxGeometry width="50" height="50" relative="1" as="geometry">
            <mxPoint x="48" y="207.75" as="sourcePoint" />
            <mxPoint x="78" y="208" as="targetPoint" />
          </mxGeometry>
        </mxCell>
        <mxCell id="SMNPBds_AobCi2813BHv-44" value="" style="endArrow=classic;html=1;rounded=0;" parent="1" edge="1">
          <mxGeometry width="50" height="50" relative="1" as="geometry">
            <mxPoint x="108" y="172" as="sourcePoint" />
            <mxPoint x="220" y="122" as="targetPoint" />
            <Array as="points">
              <mxPoint x="108" y="122" />
            </Array>
          </mxGeometry>
        </mxCell>
        <mxCell id="SMNPBds_AobCi2813BHv-45" value="Booking Search&lt;br&gt;i) Cash&lt;br&gt;II) Redeem&lt;br&gt;iii) Cash+Points" style="text;html=1;strokeColor=none;fillColor=none;align=left;verticalAlign=top;whiteSpace=wrap;rounded=0;fontSize=8;" parent="1" vertex="1">
          <mxGeometry x="150.5" y="171" width="58.5" height="47" as="geometry" />
        </mxCell>
        <mxCell id="SMNPBds_AobCi2813BHv-49" value="" style="endArrow=classic;html=1;rounded=0;entryX=0.5;entryY=1;entryDx=0;entryDy=0;" parent="1" target="SMNPBds_AobCi2813BHv-48" edge="1">
          <mxGeometry width="50" height="50" relative="1" as="geometry">
            <mxPoint x="160" y="122" as="sourcePoint" />
            <mxPoint x="200" y="72" as="targetPoint" />
          </mxGeometry>
        </mxCell>
        <mxCell id="SMNPBds_AobCi2813BHv-48" value="&lt;font style=&quot;font-size: 10px;&quot;&gt;IAM&lt;/font&gt;" style="rounded=0;whiteSpace=wrap;html=1;" parent="1" vertex="1">
          <mxGeometry x="140" y="40" width="40" height="40" as="geometry" />
        </mxCell>
        <mxCell id="SMNPBds_AobCi2813BHv-50" value="" style="endArrow=classic;html=1;rounded=0;" parent="1" edge="1">
          <mxGeometry width="50" height="50" relative="1" as="geometry">
            <mxPoint x="220" y="160" as="sourcePoint" />
            <mxPoint x="140" y="159.75" as="targetPoint" />
          </mxGeometry>
        </mxCell>
        <mxCell id="SMNPBds_AobCi2813BHv-52" value="" style="ellipse;whiteSpace=wrap;html=1;aspect=fixed;" parent="1" vertex="1">
          <mxGeometry x="168" y="151" width="20" height="20" as="geometry" />
        </mxCell>
        <mxCell id="SMNPBds_AobCi2813BHv-53" value="&lt;font style=&quot;font-size: 10px;&quot;&gt;6&lt;/font&gt;" style="text;html=1;strokeColor=none;fillColor=none;align=center;verticalAlign=middle;whiteSpace=wrap;rounded=0;" parent="1" vertex="1">
          <mxGeometry x="163" y="151" width="30" height="20" as="geometry" />
        </mxCell>
        <mxCell id="SMNPBds_AobCi2813BHv-47" value="" style="ellipse;whiteSpace=wrap;html=1;aspect=fixed;" parent="1" vertex="1">
          <mxGeometry x="98" y="127" width="20" height="20" as="geometry" />
        </mxCell>
        <mxCell id="SMNPBds_AobCi2813BHv-46" value="&lt;font style=&quot;font-size: 10px;&quot;&gt;1&lt;/font&gt;" style="text;html=1;strokeColor=none;fillColor=none;align=center;verticalAlign=middle;whiteSpace=wrap;rounded=0;" parent="1" vertex="1">
          <mxGeometry x="93" y="127" width="30" height="20" as="geometry" />
        </mxCell>
        <mxCell id="SMNPBds_AobCi2813BHv-54" value="User logs into SkyPlus/LMS" style="text;html=1;strokeColor=none;fillColor=none;align=left;verticalAlign=top;whiteSpace=wrap;rounded=0;fontSize=8;" parent="1" vertex="1">
          <mxGeometry x="32.5" y="120.5" width="58.5" height="38.5" as="geometry" />
        </mxCell>
        <mxCell id="SMNPBds_AobCi2813BHv-55" value="" style="endArrow=classic;html=1;rounded=0;" parent="1" edge="1">
          <mxGeometry width="50" height="50" relative="1" as="geometry">
            <mxPoint x="107" y="219" as="sourcePoint" />
            <mxPoint x="215" y="252" as="targetPoint" />
            <Array as="points">
              <mxPoint x="107" y="252" />
            </Array>
          </mxGeometry>
        </mxCell>
        <mxCell id="SMNPBds_AobCi2813BHv-56" value="" style="ellipse;whiteSpace=wrap;html=1;aspect=fixed;" parent="1" vertex="1">
          <mxGeometry x="97" y="226" width="20" height="20" as="geometry" />
        </mxCell>
        <mxCell id="SMNPBds_AobCi2813BHv-57" value="&lt;font style=&quot;font-size: 10px;&quot;&gt;7&lt;/font&gt;" style="text;html=1;strokeColor=none;fillColor=none;align=center;verticalAlign=middle;whiteSpace=wrap;rounded=0;" parent="1" vertex="1">
          <mxGeometry x="92" y="226" width="30" height="20" as="geometry" />
        </mxCell>
        <mxCell id="SMNPBds_AobCi2813BHv-58" value="User chooses Redeem and provides O&amp;amp;D and date for search" style="text;html=1;strokeColor=none;fillColor=none;align=left;verticalAlign=top;whiteSpace=wrap;rounded=0;fontSize=8;" parent="1" vertex="1">
          <mxGeometry x="132.5" y="253.5" width="58.5" height="38.5" as="geometry" />
        </mxCell>
        <mxCell id="SMNPBds_AobCi2813BHv-59" value="&lt;font style=&quot;font-size: 10px;&quot;&gt;LMS Services&lt;/font&gt;" style="rounded=0;whiteSpace=wrap;html=1;" parent="1" vertex="1">
          <mxGeometry x="396" y="68" width="99" height="68" as="geometry" />
        </mxCell>
        <mxCell id="SMNPBds_AobCi2813BHv-60" value="&lt;font style=&quot;font-size: 10px;&quot;&gt;Skyplus Services&lt;/font&gt;" style="rounded=0;whiteSpace=wrap;html=1;" parent="1" vertex="1">
          <mxGeometry x="396" y="248" width="99" height="72" as="geometry" />
        </mxCell>
        <mxCell id="SMNPBds_AobCi2813BHv-65" value="&lt;font style=&quot;font-size: 10px;&quot;&gt;Offer Engine&lt;/font&gt;" style="rounded=0;whiteSpace=wrap;html=1;" parent="1" vertex="1">
          <mxGeometry x="597" y="248" width="88" height="72" as="geometry" />
        </mxCell>
        <mxCell id="SMNPBds_AobCi2813BHv-72" value="" style="endArrow=classic;html=1;rounded=0;" parent="1" edge="1">
          <mxGeometry width="50" height="50" relative="1" as="geometry">
            <mxPoint x="299" y="115" as="sourcePoint" />
            <mxPoint x="387" y="115" as="targetPoint" />
          </mxGeometry>
        </mxCell>
        <mxCell id="SMNPBds_AobCi2813BHv-70" value="&lt;font style=&quot;font-size: 10px;&quot;&gt;1N API/Services&lt;/font&gt;" style="rounded=0;whiteSpace=wrap;html=1;" parent="1" vertex="1">
          <mxGeometry x="594" y="68" width="121" height="68" as="geometry" />
        </mxCell>
        <mxCell id="SMNPBds_AobCi2813BHv-73" value="" style="ellipse;whiteSpace=wrap;html=1;aspect=fixed;" parent="1" vertex="1">
          <mxGeometry x="329" y="107" width="20" height="20" as="geometry" />
        </mxCell>
        <mxCell id="SMNPBds_AobCi2813BHv-74" value="&lt;font style=&quot;font-size: 10px;&quot;&gt;2&lt;/font&gt;" style="text;html=1;strokeColor=none;fillColor=none;align=center;verticalAlign=middle;whiteSpace=wrap;rounded=0;" parent="1" vertex="1">
          <mxGeometry x="324" y="107" width="30" height="20" as="geometry" />
        </mxCell>
        <mxCell id="SMNPBds_AobCi2813BHv-75" value="getUserFQTV, Points,Tier, past and future travel" style="text;html=1;strokeColor=none;fillColor=none;align=left;verticalAlign=top;whiteSpace=wrap;rounded=0;fontSize=8;" parent="1" vertex="1">
          <mxGeometry x="314.75" y="123" width="58.5" height="53" as="geometry" />
        </mxCell>
        <mxCell id="SMNPBds_AobCi2813BHv-79" value="getSeatFactor for all the flights the day and given O&amp;amp;D is called" style="text;html=1;strokeColor=none;fillColor=none;align=left;verticalAlign=top;whiteSpace=wrap;rounded=0;fontSize=8;" parent="1" vertex="1">
          <mxGeometry x="683" y="184" width="52" height="55" as="geometry" />
        </mxCell>
        <mxCell id="SMNPBds_AobCi2813BHv-84" value="" style="endArrow=classic;html=1;rounded=0;" parent="1" edge="1">
          <mxGeometry width="50" height="50" relative="1" as="geometry">
            <mxPoint x="500" y="279" as="sourcePoint" />
            <mxPoint x="588" y="279" as="targetPoint" />
          </mxGeometry>
        </mxCell>
        <mxCell id="SMNPBds_AobCi2813BHv-85" value="" style="ellipse;whiteSpace=wrap;html=1;aspect=fixed;" parent="1" vertex="1">
          <mxGeometry x="530" y="268" width="20" height="20" as="geometry" />
        </mxCell>
        <mxCell id="SMNPBds_AobCi2813BHv-86" value="&lt;span style=&quot;font-size: 10px;&quot;&gt;9&lt;/span&gt;" style="text;html=1;strokeColor=none;fillColor=none;align=center;verticalAlign=middle;whiteSpace=wrap;rounded=0;" parent="1" vertex="1">
          <mxGeometry x="525" y="268" width="30" height="20" as="geometry" />
        </mxCell>
        <mxCell id="SMNPBds_AobCi2813BHv-87" value="getFlights And Fare in cash is called" style="text;html=1;strokeColor=none;fillColor=none;align=left;verticalAlign=top;whiteSpace=wrap;rounded=0;fontSize=8;" parent="1" vertex="1">
          <mxGeometry x="569" y="192.5" width="58.5" height="33" as="geometry" />
        </mxCell>
        <mxCell id="SMNPBds_AobCi2813BHv-88" value="" style="endArrow=classic;html=1;rounded=0;" parent="1" edge="1">
          <mxGeometry width="50" height="50" relative="1" as="geometry">
            <mxPoint x="295" y="278" as="sourcePoint" />
            <mxPoint x="383" y="278" as="targetPoint" />
          </mxGeometry>
        </mxCell>
        <mxCell id="SMNPBds_AobCi2813BHv-89" value="" style="ellipse;whiteSpace=wrap;html=1;aspect=fixed;" parent="1" vertex="1">
          <mxGeometry x="325" y="268" width="20" height="20" as="geometry" />
        </mxCell>
        <mxCell id="SMNPBds_AobCi2813BHv-90" value="&lt;font style=&quot;font-size: 10px;&quot;&gt;8&lt;/font&gt;" style="text;html=1;strokeColor=none;fillColor=none;align=center;verticalAlign=middle;whiteSpace=wrap;rounded=0;" parent="1" vertex="1">
          <mxGeometry x="320" y="268" width="30" height="20" as="geometry" />
        </mxCell>
        <mxCell id="SMNPBds_AobCi2813BHv-91" value="getFlights And Fare in Points is called" style="text;html=1;strokeColor=none;fillColor=none;align=left;verticalAlign=top;whiteSpace=wrap;rounded=0;fontSize=8;" parent="1" vertex="1">
          <mxGeometry x="308.75" y="227" width="58.5" height="33" as="geometry" />
        </mxCell>
        <mxCell id="SMNPBds_AobCi2813BHv-98" value="" style="endArrow=classic;html=1;rounded=0;" parent="1" edge="1">
          <mxGeometry width="50" height="50" relative="1" as="geometry">
            <mxPoint x="668" y="240" as="sourcePoint" />
            <mxPoint x="668" y="141" as="targetPoint" />
            <Array as="points">
              <mxPoint x="668" y="196" />
            </Array>
          </mxGeometry>
        </mxCell>
        <mxCell id="SMNPBds_AobCi2813BHv-103" value="" style="endArrow=classic;html=1;rounded=0;" parent="1" edge="1">
          <mxGeometry width="50" height="50" relative="1" as="geometry">
            <mxPoint x="791" y="97" as="sourcePoint" />
            <mxPoint x="719" y="96.5" as="targetPoint" />
          </mxGeometry>
        </mxCell>
        <mxCell id="SMNPBds_AobCi2813BHv-102" value="&lt;font style=&quot;font-size: 10px;&quot;&gt;RM&lt;/font&gt;" style="rounded=0;whiteSpace=wrap;html=1;" parent="1" vertex="1">
          <mxGeometry x="801" y="68" width="35" height="68" as="geometry" />
        </mxCell>
        <mxCell id="SMNPBds_AobCi2813BHv-104" value="RM updates the Fares and Load Factor for all flights&amp;nbsp;" style="text;html=1;strokeColor=none;fillColor=none;align=left;verticalAlign=top;whiteSpace=wrap;rounded=0;fontSize=8;" parent="1" vertex="1">
          <mxGeometry x="731" y="103" width="58.5" height="33" as="geometry" />
        </mxCell>
        <mxCell id="0PA8DL0PbdsnvtNAlWwM-1" value="" style="endArrow=classic;html=1;rounded=0;" parent="1" edge="1">
          <mxGeometry width="50" height="50" relative="1" as="geometry">
            <mxPoint x="502" y="96" as="sourcePoint" />
            <mxPoint x="590" y="96" as="targetPoint" />
          </mxGeometry>
        </mxCell>
        <mxCell id="0PA8DL0PbdsnvtNAlWwM-2" value="" style="ellipse;whiteSpace=wrap;html=1;aspect=fixed;" parent="1" vertex="1">
          <mxGeometry x="532" y="85" width="20" height="20" as="geometry" />
        </mxCell>
        <mxCell id="0PA8DL0PbdsnvtNAlWwM-3" value="&lt;font style=&quot;font-size: 10px;&quot;&gt;3&lt;/font&gt;" style="text;html=1;strokeColor=none;fillColor=none;align=center;verticalAlign=middle;whiteSpace=wrap;rounded=0;" parent="1" vertex="1">
          <mxGeometry x="527" y="85" width="30" height="20" as="geometry" />
        </mxCell>
        <mxCell id="0PA8DL0PbdsnvtNAlWwM-4" value="Get User&#39;s past travel and future bookings&amp;nbsp;" style="text;html=1;strokeColor=none;fillColor=none;align=left;verticalAlign=top;whiteSpace=wrap;rounded=0;fontSize=8;" parent="1" vertex="1">
          <mxGeometry x="512.75" y="103" width="58.5" height="33" as="geometry" />
        </mxCell>
        <mxCell id="0PA8DL0PbdsnvtNAlWwM-5" value="" style="ellipse;whiteSpace=wrap;html=1;aspect=fixed;" parent="1" vertex="1">
          <mxGeometry x="626" y="195" width="20" height="20" as="geometry" />
        </mxCell>
        <mxCell id="0PA8DL0PbdsnvtNAlWwM-6" value="&lt;span style=&quot;font-size: 10px;&quot;&gt;9.1&lt;/span&gt;" style="text;html=1;strokeColor=none;fillColor=none;align=center;verticalAlign=middle;whiteSpace=wrap;rounded=0;" parent="1" vertex="1">
          <mxGeometry x="622" y="195" width="30" height="20" as="geometry" />
        </mxCell>
        <mxCell id="0PA8DL0PbdsnvtNAlWwM-7" value="getFlights And Fare in Points is called" style="text;html=1;strokeColor=none;fillColor=none;align=left;verticalAlign=top;whiteSpace=wrap;rounded=0;fontSize=8;" parent="1" vertex="1">
          <mxGeometry x="513.75" y="283" width="58.5" height="33" as="geometry" />
        </mxCell>
        <mxCell id="0PA8DL0PbdsnvtNAlWwM-8" value="" style="ellipse;whiteSpace=wrap;html=1;aspect=fixed;" parent="1" vertex="1">
          <mxGeometry x="658" y="195" width="20" height="20" as="geometry" />
        </mxCell>
        <mxCell id="0PA8DL0PbdsnvtNAlWwM-9" value="&lt;span style=&quot;font-size: 10px;&quot;&gt;9.2&lt;/span&gt;" style="text;html=1;strokeColor=none;fillColor=none;align=center;verticalAlign=middle;whiteSpace=wrap;rounded=0;" parent="1" vertex="1">
          <mxGeometry x="653" y="195" width="30" height="20" as="geometry" />
        </mxCell>
        <mxCell id="0PA8DL0PbdsnvtNAlWwM-11" value="" style="endArrow=classic;html=1;rounded=0;" parent="1" edge="1">
          <mxGeometry width="50" height="50" relative="1" as="geometry">
            <mxPoint x="704" y="141" as="sourcePoint" />
            <mxPoint x="693" y="273" as="targetPoint" />
            <Array as="points">
              <mxPoint x="704" y="163" />
              <mxPoint x="748" y="163" />
              <mxPoint x="748" y="273" />
            </Array>
          </mxGeometry>
        </mxCell>
        <mxCell id="0PA8DL0PbdsnvtNAlWwM-13" value="" style="endArrow=classic;html=1;rounded=0;" parent="1" edge="1">
          <mxGeometry width="50" height="50" relative="1" as="geometry">
            <mxPoint x="605" y="141" as="sourcePoint" />
            <mxPoint x="583" y="251" as="targetPoint" />
            <Array as="points">
              <mxPoint x="605" y="168" />
              <mxPoint x="517" y="168" />
              <mxPoint x="517" y="207" />
              <mxPoint x="517" y="251" />
            </Array>
          </mxGeometry>
        </mxCell>
        <mxCell id="0PA8DL0PbdsnvtNAlWwM-16" value="" style="ellipse;whiteSpace=wrap;html=1;aspect=fixed;" parent="1" vertex="1">
          <mxGeometry x="507" y="197" width="20" height="20" as="geometry" />
        </mxCell>
        <mxCell id="0PA8DL0PbdsnvtNAlWwM-17" value="&lt;font style=&quot;font-size: 10px;&quot;&gt;10.1&lt;/font&gt;" style="text;html=1;strokeColor=none;fillColor=none;align=center;verticalAlign=middle;whiteSpace=wrap;rounded=0;" parent="1" vertex="1">
          <mxGeometry x="502" y="197" width="30" height="20" as="geometry" />
        </mxCell>
        <mxCell id="0PA8DL0PbdsnvtNAlWwM-20" value="Flights &amp;amp; Fare are returned" style="text;html=1;strokeColor=none;fillColor=none;align=left;verticalAlign=top;whiteSpace=wrap;rounded=0;fontSize=8;" parent="1" vertex="1">
          <mxGeometry x="443" y="188.5" width="58.5" height="33" as="geometry" />
        </mxCell>
        <mxCell id="0PA8DL0PbdsnvtNAlWwM-21" value="&lt;font style=&quot;font-size: 10px;&quot;&gt;10.2&lt;/font&gt;" style="ellipse;whiteSpace=wrap;html=1;aspect=fixed;" parent="1" vertex="1">
          <mxGeometry x="739" y="207" width="20" height="20" as="geometry" />
        </mxCell>
        <mxCell id="0PA8DL0PbdsnvtNAlWwM-23" value="Required Seat Fcator is returned" style="text;html=1;strokeColor=none;fillColor=none;align=left;verticalAlign=top;whiteSpace=wrap;rounded=0;fontSize=8;" parent="1" vertex="1">
          <mxGeometry x="760" y="190" width="52" height="55" as="geometry" />
        </mxCell>
        <mxCell id="0PA8DL0PbdsnvtNAlWwM-24" value="" style="endArrow=classic;html=1;rounded=0;" parent="1" edge="1">
          <mxGeometry width="50" height="50" relative="1" as="geometry">
            <mxPoint x="693" y="295" as="sourcePoint" />
            <mxPoint x="638" y="328" as="targetPoint" />
            <Array as="points">
              <mxPoint x="748" y="295" />
              <mxPoint x="748" y="372" />
              <mxPoint x="638" y="372" />
            </Array>
          </mxGeometry>
        </mxCell>
        <mxCell id="0PA8DL0PbdsnvtNAlWwM-26" value="" style="ellipse;whiteSpace=wrap;html=1;aspect=fixed;" parent="1" vertex="1">
          <mxGeometry x="738" y="321" width="20" height="20" as="geometry" />
        </mxCell>
        <mxCell id="0PA8DL0PbdsnvtNAlWwM-27" value="&lt;font style=&quot;font-size: 10px;&quot;&gt;11&lt;/font&gt;" style="text;html=1;strokeColor=none;fillColor=none;align=center;verticalAlign=middle;whiteSpace=wrap;rounded=0;" parent="1" vertex="1">
          <mxGeometry x="733" y="321" width="30" height="20" as="geometry" />
        </mxCell>
        <mxCell id="0PA8DL0PbdsnvtNAlWwM-28" value="" style="endArrow=classic;html=1;rounded=0;" parent="1" edge="1">
          <mxGeometry width="50" height="50" relative="1" as="geometry">
            <mxPoint x="616" y="53" as="sourcePoint" />
            <mxPoint x="440" y="53" as="targetPoint" />
            <Array as="points">
              <mxPoint x="616" y="31" />
              <mxPoint x="528" y="31" />
              <mxPoint x="440" y="31" />
            </Array>
          </mxGeometry>
        </mxCell>
        <mxCell id="0PA8DL0PbdsnvtNAlWwM-29" value="" style="ellipse;whiteSpace=wrap;html=1;aspect=fixed;" parent="1" vertex="1">
          <mxGeometry x="518" y="22" width="20" height="20" as="geometry" />
        </mxCell>
        <mxCell id="0PA8DL0PbdsnvtNAlWwM-30" value="&lt;font style=&quot;font-size: 10px;&quot;&gt;4&lt;/font&gt;" style="text;html=1;strokeColor=none;fillColor=none;align=center;verticalAlign=middle;whiteSpace=wrap;rounded=0;" parent="1" vertex="1">
          <mxGeometry x="513" y="22" width="30" height="20" as="geometry" />
        </mxCell>
        <mxCell id="0PA8DL0PbdsnvtNAlWwM-31" value="User&#39;s past travel and future bookings are returned" style="text;html=1;strokeColor=none;fillColor=none;align=left;verticalAlign=top;whiteSpace=wrap;rounded=0;fontSize=8;" parent="1" vertex="1">
          <mxGeometry x="501.75" y="37" width="58.5" height="33" as="geometry" />
        </mxCell>
        <mxCell id="0PA8DL0PbdsnvtNAlWwM-32" value="Engine refers to static table of Discount based on seat factor and no of days of advance booking" style="text;html=1;strokeColor=none;fillColor=none;align=left;verticalAlign=top;whiteSpace=wrap;rounded=0;fontSize=8;" parent="1" vertex="1">
          <mxGeometry x="765" y="300" width="52" height="94" as="geometry" />
        </mxCell>
        <mxCell id="0PA8DL0PbdsnvtNAlWwM-33" value="Engine calculates the discounted price, then applies the fair value conversion to calculate the points" style="text;html=1;strokeColor=none;fillColor=none;align=left;verticalAlign=top;whiteSpace=wrap;rounded=0;fontSize=8;" parent="1" vertex="1">
          <mxGeometry x="673" y="372" width="52" height="94" as="geometry" />
        </mxCell>
        <mxCell id="0PA8DL0PbdsnvtNAlWwM-34" value="" style="endArrow=classic;html=1;rounded=0;" parent="1" edge="1">
          <mxGeometry width="50" height="50" relative="1" as="geometry">
            <mxPoint x="605" y="328" as="sourcePoint" />
            <mxPoint x="450" y="328" as="targetPoint" />
            <Array as="points">
              <mxPoint x="605" y="372" />
              <mxPoint x="450" y="372" />
            </Array>
          </mxGeometry>
        </mxCell>
        <mxCell id="0PA8DL0PbdsnvtNAlWwM-35" value="" style="ellipse;whiteSpace=wrap;html=1;aspect=fixed;" parent="1" vertex="1">
          <mxGeometry x="519" y="360" width="20" height="20" as="geometry" />
        </mxCell>
        <mxCell id="0PA8DL0PbdsnvtNAlWwM-36" value="&lt;font style=&quot;font-size: 10px;&quot;&gt;12&lt;/font&gt;" style="text;html=1;strokeColor=none;fillColor=none;align=center;verticalAlign=middle;whiteSpace=wrap;rounded=0;" parent="1" vertex="1">
          <mxGeometry x="514" y="360" width="30" height="20" as="geometry" />
        </mxCell>
        <mxCell id="0PA8DL0PbdsnvtNAlWwM-37" value="The flights and fare in points is returned" style="text;html=1;strokeColor=none;fillColor=none;align=left;verticalAlign=top;whiteSpace=wrap;rounded=0;fontSize=8;" parent="1" vertex="1">
          <mxGeometry x="499.75" y="383" width="58.5" height="33" as="geometry" />
        </mxCell>
        <mxCell id="0PA8DL0PbdsnvtNAlWwM-38" value="" style="endArrow=classic;html=1;rounded=0;" parent="1" edge="1">
          <mxGeometry width="50" height="50" relative="1" as="geometry">
            <mxPoint x="385" y="306" as="sourcePoint" />
            <mxPoint x="297" y="306" as="targetPoint" />
            <Array as="points">
              <mxPoint x="352" y="306" />
              <mxPoint x="319" y="306" />
            </Array>
          </mxGeometry>
        </mxCell>
        <mxCell id="0PA8DL0PbdsnvtNAlWwM-39" value="" style="ellipse;whiteSpace=wrap;html=1;aspect=fixed;" parent="1" vertex="1">
          <mxGeometry x="325" y="296" width="20" height="20" as="geometry" />
        </mxCell>
        <mxCell id="0PA8DL0PbdsnvtNAlWwM-40" value="&lt;font style=&quot;font-size: 10px;&quot;&gt;13&lt;/font&gt;" style="text;html=1;strokeColor=none;fillColor=none;align=center;verticalAlign=middle;whiteSpace=wrap;rounded=0;" parent="1" vertex="1">
          <mxGeometry x="320" y="296" width="30" height="20" as="geometry" />
        </mxCell>
        <mxCell id="0PA8DL0PbdsnvtNAlWwM-41" value="The flights and fare in points is returned" style="text;html=1;strokeColor=none;fillColor=none;align=left;verticalAlign=top;whiteSpace=wrap;rounded=0;fontSize=8;" parent="1" vertex="1">
          <mxGeometry x="310.75" y="313" width="58.5" height="33" as="geometry" />
        </mxCell>
        <mxCell id="0PA8DL0PbdsnvtNAlWwM-42" value="" style="endArrow=classic;html=1;rounded=0;" parent="1" edge="1">
          <mxGeometry width="50" height="50" relative="1" as="geometry">
            <mxPoint x="204" y="322" as="sourcePoint" />
            <mxPoint x="88" y="262" as="targetPoint" />
            <Array as="points">
              <mxPoint x="171" y="322" />
              <mxPoint x="88" y="322" />
            </Array>
          </mxGeometry>
        </mxCell>
        <mxCell id="0PA8DL0PbdsnvtNAlWwM-43" value="" style="ellipse;whiteSpace=wrap;html=1;aspect=fixed;" parent="1" vertex="1">
          <mxGeometry x="144" y="312" width="20" height="20" as="geometry" />
        </mxCell>
        <mxCell id="0PA8DL0PbdsnvtNAlWwM-44" value="&lt;font style=&quot;font-size: 10px;&quot;&gt;14&lt;/font&gt;" style="text;html=1;strokeColor=none;fillColor=none;align=center;verticalAlign=middle;whiteSpace=wrap;rounded=0;" parent="1" vertex="1">
          <mxGeometry x="139" y="312" width="30" height="20" as="geometry" />
        </mxCell>
        <mxCell id="0PA8DL0PbdsnvtNAlWwM-45" value="The flights and fare in points is returned" style="text;html=1;strokeColor=none;fillColor=none;align=left;verticalAlign=top;whiteSpace=wrap;rounded=0;fontSize=8;" parent="1" vertex="1">
          <mxGeometry x="129.75" y="329" width="58.5" height="33" as="geometry" />
        </mxCell>
        <mxCell id="b6XpkM-lyrF8tY9y0PFV-2" value="" style="endArrow=classic;html=1;rounded=0;" parent="1" edge="1">
          <mxGeometry width="50" height="50" relative="1" as="geometry">
            <mxPoint x="418" y="55" as="sourcePoint" />
            <mxPoint x="297" y="44" as="targetPoint" />
            <Array as="points">
              <mxPoint x="418" y="44" />
            </Array>
          </mxGeometry>
        </mxCell>
        <mxCell id="b6XpkM-lyrF8tY9y0PFV-3" value="User&#39;s FQTV, Points,Tier, bookings are returned" style="text;html=1;strokeColor=none;fillColor=none;align=left;verticalAlign=top;whiteSpace=wrap;rounded=0;fontSize=8;" parent="1" vertex="1">
          <mxGeometry x="318" y="47" width="58.5" height="52" as="geometry" />
        </mxCell>
        <mxCell id="b6XpkM-lyrF8tY9y0PFV-6" value="" style="ellipse;whiteSpace=wrap;html=1;aspect=fixed;" parent="1" vertex="1">
          <mxGeometry x="340" y="33" width="20" height="20" as="geometry" />
        </mxCell>
        <mxCell id="b6XpkM-lyrF8tY9y0PFV-7" value="&lt;font style=&quot;font-size: 10px;&quot;&gt;5&lt;/font&gt;" style="text;html=1;strokeColor=none;fillColor=none;align=center;verticalAlign=middle;whiteSpace=wrap;rounded=0;" parent="1" vertex="1">
          <mxGeometry x="335" y="33" width="30" height="20" as="geometry" />
        </mxCell>
      </root>
    </mxGraphModel>
  </diagram>
  <diagram id="tfOoxKZsEUQnKDMy-ZZV" name="Page-2">
    <mxGraphModel dx="794" dy="420" grid="1" gridSize="11" guides="1" tooltips="1" connect="1" arrows="1" fold="1" page="1" pageScale="1" pageWidth="850" pageHeight="1100" math="0" shadow="0">
      <root>
        <mxCell id="0" />
        <mxCell id="1" parent="0" />
        <mxCell id="KITQrD6vPzJ8feY6Z6vN-1" value="" style="endArrow=classic;html=1;rounded=0;" edge="1" parent="1">
          <mxGeometry width="50" height="50" relative="1" as="geometry">
            <mxPoint x="629" y="198" as="sourcePoint" />
            <mxPoint x="629" y="99" as="targetPoint" />
          </mxGeometry>
        </mxCell>
        <mxCell id="KITQrD6vPzJ8feY6Z6vN-2" value="" style="ellipse;whiteSpace=wrap;html=1;aspect=fixed;" vertex="1" parent="1">
          <mxGeometry x="615" y="138" width="29" height="29" as="geometry" />
        </mxCell>
        <mxCell id="KITQrD6vPzJ8feY6Z6vN-3" value="&lt;span style=&quot;font-size: 10px;&quot;&gt;7.2.2&lt;/span&gt;" style="text;html=1;strokeColor=none;fillColor=none;align=center;verticalAlign=middle;whiteSpace=wrap;rounded=0;" vertex="1" parent="1">
          <mxGeometry x="605" y="136" width="50" height="33.5" as="geometry" />
        </mxCell>
        <mxCell id="KITQrD6vPzJ8feY6Z6vN-4" value="" style="verticalLabelPosition=bottom;html=1;verticalAlign=top;align=center;strokeColor=none;fillColor=#00BEF2;shape=mxgraph.azure.user;" vertex="1" parent="1">
          <mxGeometry x="8" y="170" width="30" height="20" as="geometry" />
        </mxCell>
        <mxCell id="KITQrD6vPzJ8feY6Z6vN-5" value="" style="rounded=0;whiteSpace=wrap;html=1;" vertex="1" parent="1">
          <mxGeometry x="227" y="20" width="60" height="300" as="geometry" />
        </mxCell>
        <mxCell id="KITQrD6vPzJ8feY6Z6vN-6" value="" style="verticalLabelPosition=bottom;html=1;verticalAlign=top;align=center;strokeColor=none;fillColor=#00BEF2;shape=mxgraph.azure.website_generic;pointerEvents=1;" vertex="1" parent="1">
          <mxGeometry x="86" y="158.75" width="50" height="42.5" as="geometry" />
        </mxCell>
        <mxCell id="KITQrD6vPzJ8feY6Z6vN-7" value="" style="sketch=0;points=[[0,0,0],[0.25,0,0],[0.5,0,0],[0.75,0,0],[1,0,0],[0,1,0],[0.25,1,0],[0.5,1,0],[0.75,1,0],[1,1,0],[0,0.25,0],[0,0.5,0],[0,0.75,0],[1,0.25,0],[1,0.5,0],[1,0.75,0]];outlineConnect=0;fontColor=#232F3E;fillColor=#E7157B;strokeColor=#ffffff;dashed=0;verticalLabelPosition=bottom;verticalAlign=top;align=center;html=1;fontSize=12;fontStyle=0;aspect=fixed;shape=mxgraph.aws4.resourceIcon;resIcon=mxgraph.aws4.api_gateway;" vertex="1" parent="1">
          <mxGeometry x="237" y="145.75" width="38" height="38" as="geometry" />
        </mxCell>
        <mxCell id="KITQrD6vPzJ8feY6Z6vN-8" value="" style="endArrow=classic;html=1;rounded=0;" edge="1" parent="1">
          <mxGeometry width="50" height="50" relative="1" as="geometry">
            <mxPoint x="48" y="187.75" as="sourcePoint" />
            <mxPoint x="78" y="188" as="targetPoint" />
          </mxGeometry>
        </mxCell>
        <mxCell id="KITQrD6vPzJ8feY6Z6vN-9" value="" style="endArrow=classic;html=1;rounded=0;" edge="1" parent="1">
          <mxGeometry width="50" height="50" relative="1" as="geometry">
            <mxPoint x="108" y="152" as="sourcePoint" />
            <mxPoint x="220" y="102" as="targetPoint" />
            <Array as="points">
              <mxPoint x="108" y="102" />
            </Array>
          </mxGeometry>
        </mxCell>
        <mxCell id="KITQrD6vPzJ8feY6Z6vN-10" value="i) Cash&lt;br&gt;II) Redeem&lt;br&gt;iii) Cash+Points" style="text;html=1;strokeColor=none;fillColor=none;align=left;verticalAlign=top;whiteSpace=wrap;rounded=0;fontSize=8;" vertex="1" parent="1">
          <mxGeometry x="150.5" y="151" width="58.5" height="47" as="geometry" />
        </mxCell>
        <mxCell id="KITQrD6vPzJ8feY6Z6vN-11" value="" style="endArrow=classic;html=1;rounded=0;entryX=0.5;entryY=1;entryDx=0;entryDy=0;" edge="1" parent="1" target="KITQrD6vPzJ8feY6Z6vN-12">
          <mxGeometry width="50" height="50" relative="1" as="geometry">
            <mxPoint x="160" y="102" as="sourcePoint" />
            <mxPoint x="200" y="52" as="targetPoint" />
          </mxGeometry>
        </mxCell>
        <mxCell id="KITQrD6vPzJ8feY6Z6vN-12" value="IAM" style="rounded=0;whiteSpace=wrap;html=1;" vertex="1" parent="1">
          <mxGeometry x="140" y="20" width="40" height="40" as="geometry" />
        </mxCell>
        <mxCell id="KITQrD6vPzJ8feY6Z6vN-13" value="" style="endArrow=classic;html=1;rounded=0;" edge="1" parent="1">
          <mxGeometry width="50" height="50" relative="1" as="geometry">
            <mxPoint x="220" y="140" as="sourcePoint" />
            <mxPoint x="140" y="139.75" as="targetPoint" />
          </mxGeometry>
        </mxCell>
        <mxCell id="KITQrD6vPzJ8feY6Z6vN-14" value="" style="ellipse;whiteSpace=wrap;html=1;aspect=fixed;" vertex="1" parent="1">
          <mxGeometry x="168" y="131" width="20" height="20" as="geometry" />
        </mxCell>
        <mxCell id="KITQrD6vPzJ8feY6Z6vN-15" value="&lt;font style=&quot;font-size: 10px;&quot;&gt;3&lt;/font&gt;" style="text;html=1;strokeColor=none;fillColor=none;align=center;verticalAlign=middle;whiteSpace=wrap;rounded=0;" vertex="1" parent="1">
          <mxGeometry x="163" y="131" width="30" height="20" as="geometry" />
        </mxCell>
        <mxCell id="KITQrD6vPzJ8feY6Z6vN-16" value="" style="ellipse;whiteSpace=wrap;html=1;aspect=fixed;" vertex="1" parent="1">
          <mxGeometry x="98" y="107" width="20" height="20" as="geometry" />
        </mxCell>
        <mxCell id="KITQrD6vPzJ8feY6Z6vN-17" value="&lt;font style=&quot;font-size: 10px;&quot;&gt;1&lt;/font&gt;" style="text;html=1;strokeColor=none;fillColor=none;align=center;verticalAlign=middle;whiteSpace=wrap;rounded=0;" vertex="1" parent="1">
          <mxGeometry x="93" y="107" width="30" height="20" as="geometry" />
        </mxCell>
        <mxCell id="KITQrD6vPzJ8feY6Z6vN-18" value="User logs into SkyPlus/LMS" style="text;html=1;strokeColor=none;fillColor=none;align=left;verticalAlign=top;whiteSpace=wrap;rounded=0;fontSize=8;" vertex="1" parent="1">
          <mxGeometry x="32.5" y="100.5" width="58.5" height="38.5" as="geometry" />
        </mxCell>
        <mxCell id="KITQrD6vPzJ8feY6Z6vN-19" value="" style="endArrow=classic;html=1;rounded=0;" edge="1" parent="1">
          <mxGeometry width="50" height="50" relative="1" as="geometry">
            <mxPoint x="107" y="199" as="sourcePoint" />
            <mxPoint x="215" y="232" as="targetPoint" />
            <Array as="points">
              <mxPoint x="107" y="232" />
            </Array>
          </mxGeometry>
        </mxCell>
        <mxCell id="KITQrD6vPzJ8feY6Z6vN-20" value="" style="ellipse;whiteSpace=wrap;html=1;aspect=fixed;" vertex="1" parent="1">
          <mxGeometry x="97" y="206" width="20" height="20" as="geometry" />
        </mxCell>
        <mxCell id="KITQrD6vPzJ8feY6Z6vN-21" value="&lt;font style=&quot;font-size: 10px;&quot;&gt;4&lt;/font&gt;" style="text;html=1;strokeColor=none;fillColor=none;align=center;verticalAlign=middle;whiteSpace=wrap;rounded=0;" vertex="1" parent="1">
          <mxGeometry x="92" y="206" width="30" height="20" as="geometry" />
        </mxCell>
        <mxCell id="KITQrD6vPzJ8feY6Z6vN-22" value="User provides O&amp;amp;D and date for search" style="text;html=1;strokeColor=none;fillColor=none;align=left;verticalAlign=top;whiteSpace=wrap;rounded=0;fontSize=8;" vertex="1" parent="1">
          <mxGeometry x="132.5" y="233.5" width="58.5" height="38.5" as="geometry" />
        </mxCell>
        <mxCell id="KITQrD6vPzJ8feY6Z6vN-23" value="" style="endArrow=classic;html=1;rounded=0;" edge="1" parent="1">
          <mxGeometry width="50" height="50" relative="1" as="geometry">
            <mxPoint x="297" y="224" as="sourcePoint" />
            <mxPoint x="385" y="224" as="targetPoint" />
          </mxGeometry>
        </mxCell>
        <mxCell id="KITQrD6vPzJ8feY6Z6vN-24" value="LMS Services" style="rounded=0;whiteSpace=wrap;html=1;" vertex="1" parent="1">
          <mxGeometry x="396" y="20" width="99" height="68" as="geometry" />
        </mxCell>
        <mxCell id="KITQrD6vPzJ8feY6Z6vN-25" value="Skyplus Services" style="rounded=0;whiteSpace=wrap;html=1;" vertex="1" parent="1">
          <mxGeometry x="396" y="207" width="99" height="72" as="geometry" />
        </mxCell>
        <mxCell id="KITQrD6vPzJ8feY6Z6vN-26" value="" style="ellipse;whiteSpace=wrap;html=1;aspect=fixed;" vertex="1" parent="1">
          <mxGeometry x="327" y="213" width="20" height="20" as="geometry" />
        </mxCell>
        <mxCell id="KITQrD6vPzJ8feY6Z6vN-27" value="&lt;font style=&quot;font-size: 10px;&quot;&gt;.5.1&lt;/font&gt;" style="text;html=1;strokeColor=none;fillColor=none;align=center;verticalAlign=middle;whiteSpace=wrap;rounded=0;" vertex="1" parent="1">
          <mxGeometry x="322" y="213" width="30" height="20" as="geometry" />
        </mxCell>
        <mxCell id="KITQrD6vPzJ8feY6Z6vN-28" value="getFlights And Fare in cash is called" style="text;html=1;strokeColor=none;fillColor=none;align=left;verticalAlign=top;whiteSpace=wrap;rounded=0;fontSize=8;" vertex="1" parent="1">
          <mxGeometry x="307.75" y="176" width="58.5" height="33" as="geometry" />
        </mxCell>
        <mxCell id="KITQrD6vPzJ8feY6Z6vN-29" value="" style="endArrow=classic;html=1;rounded=0;" edge="1" parent="1">
          <mxGeometry width="50" height="50" relative="1" as="geometry">
            <mxPoint x="407" y="198" as="sourcePoint" />
            <mxPoint x="594" y="55" as="targetPoint" />
            <Array as="points">
              <mxPoint x="407" y="143" />
              <mxPoint x="517" y="143" />
              <mxPoint x="517" y="110" />
              <mxPoint x="517" y="55" />
              <mxPoint x="550" y="55" />
            </Array>
          </mxGeometry>
        </mxCell>
        <mxCell id="KITQrD6vPzJ8feY6Z6vN-30" value="Offer Engine" style="rounded=0;whiteSpace=wrap;html=1;" vertex="1" parent="1">
          <mxGeometry x="597" y="207" width="88" height="72" as="geometry" />
        </mxCell>
        <mxCell id="KITQrD6vPzJ8feY6Z6vN-31" value="" style="ellipse;whiteSpace=wrap;html=1;aspect=fixed;" vertex="1" parent="1">
          <mxGeometry x="397" y="169" width="20" height="20" as="geometry" />
        </mxCell>
        <mxCell id="KITQrD6vPzJ8feY6Z6vN-32" value="&lt;span style=&quot;font-size: 10px;&quot;&gt;6.1&lt;/span&gt;" style="text;html=1;strokeColor=none;fillColor=none;align=center;verticalAlign=middle;whiteSpace=wrap;rounded=0;" vertex="1" parent="1">
          <mxGeometry x="392" y="169" width="30" height="20" as="geometry" />
        </mxCell>
        <mxCell id="KITQrD6vPzJ8feY6Z6vN-33" value="getFlights And Fare in cash of Navitaire is called" style="text;html=1;strokeColor=none;fillColor=none;align=left;verticalAlign=top;whiteSpace=wrap;rounded=0;fontSize=8;" vertex="1" parent="1">
          <mxGeometry x="518.75" y="15.5" width="78.25" height="33" as="geometry" />
        </mxCell>
        <mxCell id="KITQrD6vPzJ8feY6Z6vN-34" value="" style="endArrow=classic;html=1;rounded=0;" edge="1" parent="1">
          <mxGeometry width="50" height="50" relative="1" as="geometry">
            <mxPoint x="293" y="52" as="sourcePoint" />
            <mxPoint x="381" y="52" as="targetPoint" />
          </mxGeometry>
        </mxCell>
        <mxCell id="KITQrD6vPzJ8feY6Z6vN-35" value="1N API/Services" style="rounded=0;whiteSpace=wrap;html=1;" vertex="1" parent="1">
          <mxGeometry x="606" y="20" width="98" height="68" as="geometry" />
        </mxCell>
        <mxCell id="KITQrD6vPzJ8feY6Z6vN-36" value="" style="ellipse;whiteSpace=wrap;html=1;aspect=fixed;" vertex="1" parent="1">
          <mxGeometry x="323" y="41" width="20" height="20" as="geometry" />
        </mxCell>
        <mxCell id="KITQrD6vPzJ8feY6Z6vN-37" value="&lt;font style=&quot;font-size: 10px;&quot;&gt;2&lt;/font&gt;" style="text;html=1;strokeColor=none;fillColor=none;align=center;verticalAlign=middle;whiteSpace=wrap;rounded=0;" vertex="1" parent="1">
          <mxGeometry x="318" y="41" width="30" height="20" as="geometry" />
        </mxCell>
        <mxCell id="KITQrD6vPzJ8feY6Z6vN-38" value="User&#39;s FQTV and Tier is picked" style="text;html=1;strokeColor=none;fillColor=none;align=left;verticalAlign=top;whiteSpace=wrap;rounded=0;fontSize=8;" vertex="1" parent="1">
          <mxGeometry x="303.75" y="66" width="58.5" height="33" as="geometry" />
        </mxCell>
        <mxCell id="KITQrD6vPzJ8feY6Z6vN-39" value="" style="endArrow=classic;html=1;rounded=0;" edge="1" parent="1">
          <mxGeometry width="50" height="50" relative="1" as="geometry">
            <mxPoint x="594" y="77" as="sourcePoint" />
            <mxPoint x="440" y="198" as="targetPoint" />
            <Array as="points">
              <mxPoint x="550" y="77" />
              <mxPoint x="550" y="165" />
              <mxPoint x="440" y="165" />
            </Array>
          </mxGeometry>
        </mxCell>
        <mxCell id="KITQrD6vPzJ8feY6Z6vN-40" value="" style="ellipse;whiteSpace=wrap;html=1;aspect=fixed;" vertex="1" parent="1">
          <mxGeometry x="541" y="123" width="20" height="20" as="geometry" />
        </mxCell>
        <mxCell id="KITQrD6vPzJ8feY6Z6vN-41" value="&lt;span style=&quot;font-size: 10px;&quot;&gt;7.1&lt;/span&gt;" style="text;html=1;strokeColor=none;fillColor=none;align=center;verticalAlign=middle;whiteSpace=wrap;rounded=0;" vertex="1" parent="1">
          <mxGeometry x="536" y="123" width="30" height="20" as="geometry" />
        </mxCell>
        <mxCell id="KITQrD6vPzJ8feY6Z6vN-42" value="Flights and Cash Fare for the search are returned" style="text;html=1;strokeColor=none;fillColor=none;align=left;verticalAlign=top;whiteSpace=wrap;rounded=0;fontSize=8;" vertex="1" parent="1">
          <mxGeometry x="462" y="163.5" width="78.25" height="33" as="geometry" />
        </mxCell>
        <mxCell id="KITQrD6vPzJ8feY6Z6vN-43" value="" style="endArrow=classic;html=1;rounded=0;" edge="1" parent="1">
          <mxGeometry width="50" height="50" relative="1" as="geometry">
            <mxPoint x="500" y="254" as="sourcePoint" />
            <mxPoint x="588" y="254" as="targetPoint" />
          </mxGeometry>
        </mxCell>
        <mxCell id="KITQrD6vPzJ8feY6Z6vN-44" value="" style="ellipse;whiteSpace=wrap;html=1;aspect=fixed;" vertex="1" parent="1">
          <mxGeometry x="530" y="243" width="20" height="20" as="geometry" />
        </mxCell>
        <mxCell id="KITQrD6vPzJ8feY6Z6vN-45" value="&lt;span style=&quot;font-size: 10px;&quot;&gt;6.2&lt;/span&gt;" style="text;html=1;strokeColor=none;fillColor=none;align=center;verticalAlign=middle;whiteSpace=wrap;rounded=0;" vertex="1" parent="1">
          <mxGeometry x="525" y="243" width="30" height="20" as="geometry" />
        </mxCell>
        <mxCell id="KITQrD6vPzJ8feY6Z6vN-46" value="getFlights And Fare in cash is called" style="text;html=1;strokeColor=none;fillColor=none;align=left;verticalAlign=top;whiteSpace=wrap;rounded=0;fontSize=8;" vertex="1" parent="1">
          <mxGeometry x="571" y="162.5" width="58.5" height="33" as="geometry" />
        </mxCell>
        <mxCell id="KITQrD6vPzJ8feY6Z6vN-47" value="" style="endArrow=classic;html=1;rounded=0;" edge="1" parent="1">
          <mxGeometry width="50" height="50" relative="1" as="geometry">
            <mxPoint x="295" y="263" as="sourcePoint" />
            <mxPoint x="383" y="263" as="targetPoint" />
          </mxGeometry>
        </mxCell>
        <mxCell id="KITQrD6vPzJ8feY6Z6vN-48" value="" style="ellipse;whiteSpace=wrap;html=1;aspect=fixed;" vertex="1" parent="1">
          <mxGeometry x="325" y="252" width="20" height="20" as="geometry" />
        </mxCell>
        <mxCell id="KITQrD6vPzJ8feY6Z6vN-49" value="&lt;font style=&quot;font-size: 10px;&quot;&gt;.5.2&lt;/font&gt;" style="text;html=1;strokeColor=none;fillColor=none;align=center;verticalAlign=middle;whiteSpace=wrap;rounded=0;" vertex="1" parent="1">
          <mxGeometry x="320" y="252" width="30" height="20" as="geometry" />
        </mxCell>
        <mxCell id="KITQrD6vPzJ8feY6Z6vN-50" value="getFlights And Fare in cash, Cash+miles&amp;nbsp; is called" style="text;html=1;strokeColor=none;fillColor=none;align=left;verticalAlign=top;whiteSpace=wrap;rounded=0;fontSize=8;" vertex="1" parent="1">
          <mxGeometry x="307.75" y="276" width="58.5" height="33" as="geometry" />
        </mxCell>
        <mxCell id="KITQrD6vPzJ8feY6Z6vN-51" value="" style="endArrow=classic;html=1;rounded=0;" edge="1" parent="1">
          <mxGeometry width="50" height="50" relative="1" as="geometry">
            <mxPoint x="668" y="198" as="sourcePoint" />
            <mxPoint x="668" y="99" as="targetPoint" />
            <Array as="points">
              <mxPoint x="668" y="176" />
            </Array>
          </mxGeometry>
        </mxCell>
        <mxCell id="KITQrD6vPzJ8feY6Z6vN-52" value="" style="endArrow=classic;html=1;rounded=0;" edge="1" parent="1">
          <mxGeometry width="50" height="50" relative="1" as="geometry">
            <mxPoint x="781" y="49" as="sourcePoint" />
            <mxPoint x="721" y="48.5" as="targetPoint" />
          </mxGeometry>
        </mxCell>
        <mxCell id="KITQrD6vPzJ8feY6Z6vN-53" value="RM" style="rounded=0;whiteSpace=wrap;html=1;" vertex="1" parent="1">
          <mxGeometry x="801" y="20" width="77" height="68" as="geometry" />
        </mxCell>
        <mxCell id="KITQrD6vPzJ8feY6Z6vN-54" value="RM updates the Fares and Load Factor for all flights&amp;nbsp;" style="text;html=1;strokeColor=none;fillColor=none;align=left;verticalAlign=top;whiteSpace=wrap;rounded=0;fontSize=8;" vertex="1" parent="1">
          <mxGeometry x="726" y="55" width="58.5" height="33" as="geometry" />
        </mxCell>
      </root>
    </mxGraphModel>
  </diagram>
</mxfile>
